%
M48
M72
T01C0.01200
T02C0.02874
T03C0.03200
T04C0.03937
T05C0.04000
T06C0.07900
T07C0.11811
%
T01
X38800Y25582
X24800Y40582
X31500Y49932
X41850Y48582
X43800Y57582
X33800Y67582
X19800Y78582
X13950Y76482
X5800Y83582
X9800Y89582
X36450Y88632
X44550Y88632
X60800Y88582
X61650Y82782
X58800Y79582
X67800Y75582
X72800Y69582
X76500Y75582
X73800Y80082
X76050Y89082
X76050Y92682
X77800Y96582
X59400Y109332
X57600Y116082
X61650Y126882
X67050Y124182
X70800Y131582
X64350Y132282
X56250Y132282
X59800Y143582
X58050Y146682
X69800Y149582
X73350Y143982
X76800Y153582
X58800Y159582
X58050Y165132
X63800Y176582
X70800Y182582
X63800Y189582
X60300Y183582
X49500Y182232
X58050Y196182
X58050Y202032
X57800Y215582
X58050Y220932
X57800Y226582
X51800Y231582
X43200Y238932
X39800Y246582
X39800Y259582
X39800Y266582
X46350Y265932
X59850Y262332
X66600Y263682
X77800Y264582
X81000Y267282
X78300Y272232
X76050Y278532
X74250Y281682
X76800Y284582
X72000Y278532
X62800Y283582
X57150Y283032
X66800Y288582
X72800Y298582
X76950Y303732
X82800Y303582
X74800Y310582
X65700Y315882
X58050Y316332
X52650Y326682
X55800Y330582
X64800Y330582
X73800Y322582
X76500Y326682
X80100Y325782
X94050Y328932
X96750Y335682
X97200Y343782
X107100Y341982
X107100Y337032
X123300Y331632
X126000Y338832
X127800Y325582
X134800Y319582
X136800Y314532
X126800Y315582
X120600Y313632
X118800Y319582
X101700Y310032
X96300Y303732
X104400Y302832
X100800Y293582
X107100Y287532
X118800Y294582
X118800Y301582
X118350Y305532
X128800Y294582
X136800Y290682
X132800Y282582
X135800Y276582
X131850Y275832
X131850Y270432
X134550Y265032
X135800Y254582
X141800Y248582
X133800Y246582
X125550Y241632
X120600Y236682
X120600Y227682
X115200Y222282
X107100Y218682
X105300Y224082
X96300Y220932
X96300Y215982
X99800Y212582
X105300Y206532
X96300Y201132
X96300Y196182
X102800Y193582
X107100Y196182
X103800Y183582
X109350Y181332
X109800Y177732
X111150Y168282
X101800Y158582
X111800Y148582
X104400Y146682
X118800Y156582
X123800Y160582
X133800Y171582
X131400Y177732
X131850Y181332
X131850Y185382
X131850Y189432
X124800Y177582
X149400Y166482
X153900Y161982
X155800Y157582
X151200Y148032
X157800Y145582
X163800Y145332
X162000Y141282
X159300Y135882
X153000Y138582
X164250Y130932
X165800Y124582
X171000Y121032
X174150Y113832
X180900Y107082
X184500Y107532
X189450Y102582
X193500Y102582
X185800Y98582
X190800Y84582
X204800Y82582
X204800Y76582
X214800Y69582
X217800Y76582
X219800Y82582
X219800Y88582
X212800Y91582
X221800Y98582
X212800Y113582
X211050Y120132
X213750Y122832
X221400Y126432
X226800Y121582
X221800Y117582
X234800Y127582
X231300Y131832
X234450Y136332
X234450Y141282
X234450Y151182
X234450Y156132
X234450Y161082
X234450Y166032
X237150Y173232
X225800Y170582
X211950Y165582
X208800Y168582
X197800Y165582
X190800Y165582
X191700Y159732
X183150Y159732
X179100Y159732
X175050Y163782
X170800Y157582
X169650Y148032
X174150Y148482
X171800Y136582
X185850Y128682
X192800Y135582
X197800Y123582
X202950Y120132
X203400Y116532
X200800Y104582
X188800Y114582
X157950Y125982
X153000Y116532
X133800Y114582
X123800Y95582
X134800Y90582
X134800Y83582
X124800Y74582
X133800Y64582
X141800Y64582
X149800Y81582
X143800Y95582
X164800Y73582
X171800Y64582
X187800Y63582
X191800Y57582
X191800Y50582
X191800Y44582
X197800Y44582
X188800Y31582
X197800Y24582
X177800Y14582
X180800Y7582
X155800Y28582
X148800Y14582
X140850Y15282
X121800Y33582
X110800Y33582
X112800Y40582
X112800Y47582
X123800Y44582
X122800Y61582
X114300Y86832
X113800Y95582
X91800Y117582
X95800Y123582
X77800Y117582
X76800Y131582
X47250Y118782
X40500Y121032
X45450Y124182
X43650Y134532
X33750Y128232
X27800Y129582
X19800Y126582
X9800Y126582
X19800Y151582
X25650Y150282
X25650Y155232
X19350Y156582
X25650Y160182
X25650Y165132
X26550Y176832
X31500Y181782
X19350Y190782
X21150Y197532
X23850Y205182
X25650Y211932
X31500Y224982
X28800Y231282
X39800Y221582
X39800Y204582
X40950Y198882
X77800Y215582
X81450Y220932
X84150Y217782
X77800Y226582
X90800Y226582
X90900Y234432
X97800Y238582
X109350Y234882
X117900Y246132
X122850Y253332
X102800Y249582
X96750Y253782
X99450Y265032
X101700Y274482
X92250Y272232
X91350Y281682
X84800Y292582
X59800Y298582
X42300Y296532
X40800Y306582
X24750Y305982
X24750Y301032
X18450Y300132
X13950Y296532
X15750Y293382
X13500Y305082
X34650Y324882
X45000Y323982
X56250Y346482
X60800Y349582
X63800Y343582
X73800Y340582
X76950Y346482
X82800Y349582
X84800Y359582
X85500Y365382
X77800Y366582
X69800Y359582
X54900Y355932
X77800Y377582
X77800Y388582
X110700Y374832
X120800Y364582
X120800Y357582
X123800Y351582
X141800Y351582
X153000Y343782
X170800Y351582
X170800Y357582
X160800Y365582
X150800Y364582
X184800Y352582
X184800Y340582
X172800Y332582
X184800Y330582
X184800Y322582
X184800Y316582
X192800Y308582
X195800Y311582
X199800Y315582
X203800Y320582
X218800Y306582
X222300Y302382
X226800Y299582
X231300Y309132
X242550Y306432
X250800Y299582
X250800Y291582
X231300Y276732
X234000Y269982
X237150Y264582
X242550Y262332
X231750Y260982
X231750Y256032
X231750Y245682
X237150Y236682
X231750Y233082
X225900Y234882
X216000Y234882
X214200Y225432
X221400Y218232
X237150Y228132
X238050Y216432
X242550Y216432
X231800Y198582
X232650Y190332
X238800Y183582
X250800Y170582
X262350Y175932
X265800Y178582
X271800Y182582
X269100Y188082
X268650Y203382
X265050Y203832
X284850Y216432
X276750Y225432
X281250Y229932
X289350Y229932
X288900Y233532
X283950Y236682
X287550Y242082
X286200Y251082
X286200Y256032
X286200Y259632
X295200Y264582
X305800Y260582
X296100Y276732
X296100Y281232
X296100Y286182
X299800Y293582
X295650Y297432
X291800Y301582
X286200Y306432
X280800Y301582
X271350Y301482
X269800Y309582
X282800Y313582
X284850Y320832
X286200Y331182
X286200Y336132
X279800Y347582
X270800Y354582
X288800Y354582
X295800Y352582
X296800Y347582
X305800Y347582
X316800Y352582
X336150Y336132
X336150Y331182
X348800Y327582
X357750Y326682
X368800Y330582
X351450Y338832
X347800Y348582
X358800Y354582
X368800Y354582
X392800Y354582
X396450Y341532
X400800Y341582
X415800Y341582
X415800Y347582
X415800Y356582
X408800Y354582
X415800Y330582
X421650Y326682
X406800Y323582
X401800Y316582
X410400Y310482
X415800Y302582
X407700Y298782
X407800Y292582
X400950Y292032
X407700Y286182
X407700Y281232
X416250Y275832
X414450Y266382
X399800Y263582
X408800Y247582
X410800Y240582
X410850Y233982
X409800Y229582
X409800Y223582
X416250Y220032
X409800Y214582
X409800Y207582
X413550Y206532
X421650Y205182
X407800Y192582
X401800Y186582
X405900Y176832
X412800Y178582
X417150Y183132
X421200Y181782
X405800Y167582
X405900Y156132
X410400Y150732
X417150Y148032
X414800Y159582
X399800Y147582
X412800Y138582
X416250Y132732
X426150Y129582
X411800Y119582
X399800Y128582
X381800Y145582
X370800Y128582
X364050Y125532
X361800Y122832
X361800Y118582
X374800Y114582
X384800Y109582
X386800Y102582
X376800Y102582
X366800Y102582
X346800Y115582
X342000Y107082
X329800Y107582
X322200Y105732
X320800Y115582
X301800Y117582
X296100Y128682
X285800Y127582
X285300Y131382
X286200Y136332
X286200Y141282
X286200Y151182
X286200Y156132
X286200Y161082
X286200Y166032
X294800Y169582
X294800Y181582
X296100Y185832
X285750Y190782
X296100Y195732
X299250Y202032
X298800Y205632
X307350Y198432
X297000Y216432
X307350Y242082
X330800Y235582
X336150Y229482
X330300Y220032
X327600Y217782
X343800Y203582
X347400Y209232
X350100Y215982
X361350Y214182
X364800Y208582
X355050Y206532
X351000Y195732
X351450Y192132
X343800Y191582
X351000Y185832
X351800Y181582
X343800Y182582
X343800Y169582
X351800Y169582
X351000Y166032
X343800Y162582
X351450Y158832
X347850Y154332
X343800Y150582
X351450Y149832
X350550Y141732
X345800Y137582
X359550Y144882
X362800Y136582
X335700Y150282
X305550Y148482
X280350Y171882
X272800Y169582
X271800Y146582
X271800Y127582
X273800Y119582
X267800Y112582
X276800Y111582
X286800Y119582
X261800Y95582
X256950Y92232
X254800Y98582
X244800Y88582
X238050Y79632
X214650Y60732
X208800Y63582
X237800Y36582
X239400Y28782
X269800Y83582
X269800Y89582
X251800Y119582
X251800Y146582
X219600Y143982
X214200Y142632
X213800Y156582
X191800Y150582
X185400Y174132
X185850Y182682
X189900Y182682
X184050Y188982
X186800Y194582
X180800Y200582
X183600Y206532
X189800Y204582
X198450Y206082
X201600Y211932
X203400Y218232
X195750Y222732
X202500Y225432
X200800Y236582
X207000Y243882
X215800Y244582
X215800Y262582
X215800Y269582
X196800Y269582
X196800Y262582
X196800Y254582
X194800Y247582
X187800Y247582
X184050Y236682
X180450Y236682
X183800Y226582
X183600Y214632
X166500Y206532
X170550Y195732
X164250Y190332
X161550Y193482
X152550Y195732
X148500Y195732
X150300Y204732
X147150Y206532
X135000Y215082
X127800Y218232
X121500Y215082
X127800Y210132
X124200Y205632
X133200Y204732
X138150Y222282
X137250Y227682
X133200Y227682
X133800Y231582
X148800Y231582
X153800Y236582
X157050Y226782
X160650Y225882
X164800Y258582
X167400Y265932
X159800Y267582
X160800Y283582
X169800Y289582
X180450Y280332
X187800Y282582
X190800Y294732
X196800Y291582
X205800Y300582
X215800Y288582
X187800Y269582
X187800Y262582
X153450Y294282
X150300Y296082
X146800Y292582
X157500Y307332
X163800Y307582
X163800Y299582
X172800Y299582
X172800Y307582
X172800Y322582
X163800Y322582
X155800Y326582
X155800Y317582
X200800Y344582
X220800Y344582
X220800Y337582
X240300Y336132
X240300Y331182
X247950Y359532
X301800Y320582
X301800Y309582
X311800Y301582
X311800Y293582
X308250Y289332
X278800Y288582
X269800Y265582
X275800Y253582
X269100Y250182
X271350Y243882
X278550Y243882
X338800Y257582
X340650Y264582
X339750Y269982
X347400Y269982
X351450Y275832
X345150Y281232
X345150Y286182
X347800Y289582
X347800Y300582
X351900Y302832
X345150Y306432
X350100Y311382
X359550Y302382
X365800Y299582
X372150Y305532
X368800Y310582
X381800Y292582
X368800Y289582
X364950Y274932
X367650Y269082
X367800Y263582
X372600Y263682
X366750Y254682
X370800Y248582
X361350Y245682
X360800Y235582
X354600Y229932
X350100Y229482
X350800Y235582
X350800Y246582
X351450Y251082
X356400Y265032
X369800Y235582
X375800Y235582
X392850Y239382
X396800Y233582
X401400Y226332
X400800Y221582
X396450Y222732
X401400Y211482
X399800Y207582
X381800Y205582
X365800Y194582
X371800Y179582
X369800Y171582
X364950Y173232
X358800Y175582
X381800Y179582
X392800Y178582
X392850Y172782
X445800Y171582
X458800Y178582
X445800Y145582
X436800Y220582
X427800Y220582
X427800Y233582
X427800Y239582
X417150Y247932
X401400Y241632
X446800Y239582
X446800Y233582
X457650Y233082
X460800Y236582
X421650Y289782
X415800Y289582
X425250Y302832
X446800Y296582
X459800Y298582
X446800Y326582
X445800Y350582
X447800Y356582
X333800Y309582
X207800Y192582
X179100Y179982
X167400Y171882
X161550Y173682
X156150Y177732
X156150Y169182
X166050Y180882
X164250Y185382
X130800Y150582
X127350Y148032
X91800Y168582
X81450Y189882
X81450Y193932
X84150Y242982
X69300Y251532
X37800Y286582
X24750Y274482
X25650Y270882
X22950Y263682
X21150Y259182
X19350Y256032
X17550Y238932
X10800Y239382
X9800Y165582
X45000Y103932
X16650Y64782
X60800Y57582
X58950Y40032
X60750Y29232
X71800Y33582
X71800Y16582
X64800Y7582
X91800Y33582
X101800Y33582
X111800Y15582
X155800Y51582
X86400Y61632
X79800Y63582
X315800Y89582
X315800Y95582
X316800Y176582
X101800Y353582
T02
X146170Y348582
X146170Y358582
X146170Y368582
X177430Y368582
X177430Y358582
X177430Y348582
X177430Y338582
X177430Y328582
X177430Y318582
X177430Y308582
X177430Y298582
X146170Y298582
X146170Y308582
X146170Y318582
X146170Y328582
X146170Y338582
T03
X149800Y86582
X139800Y86582
X211800Y84582
X211800Y74582
X261800Y74582
X261800Y84582
X416800Y23582
X426800Y23582
T04
X419595Y68582
X431800Y87480
X443611Y68582
T05
X274600Y33482
X274600Y15682
X249000Y15682
X229600Y15682
X229600Y33482
X249000Y33482
X204000Y33482
X204000Y15682
T06
X174800Y23782
X174800Y39582
X174800Y55382
X136800Y55382
X136800Y39582
X136800Y23782
T07
X21485Y23267
X21485Y377598
X454556Y377598
X454556Y23267
M30
