G75*
%MOIN*%
%OFA0B0*%
%FSLAX25Y25*%
%IPPOS*%
%LPD*%
%AMOC8*
5,1,8,0,0,1.08239X$1,22.5*
%
%ADD10C,0.00000*%
%ADD11R,0.04331X0.03937*%
%ADD12OC8,0.06300*%
%ADD13C,0.06300*%
%ADD14OC8,0.04800*%
%ADD15R,0.05512X0.03937*%
%ADD16R,0.06004X0.02559*%
%ADD17R,0.05800X0.01400*%
%ADD18R,0.07800X0.02200*%
%ADD19R,0.04449X0.04449*%
%ADD20C,0.04449*%
%ADD21C,0.07874*%
%ADD22R,0.03150X0.03150*%
%ADD23R,0.05906X0.05118*%
%ADD24R,0.02992X0.05000*%
%ADD25C,0.06000*%
%ADD26C,0.11850*%
%ADD27R,0.05000X0.02992*%
%ADD28C,0.11811*%
D10*
X0001800Y0003582D02*
X0001800Y0397283D01*
X0474241Y0397283D01*
X0474241Y0003582D01*
X0001800Y0003582D01*
X0015579Y0023267D02*
X0015581Y0023420D01*
X0015587Y0023574D01*
X0015597Y0023727D01*
X0015611Y0023879D01*
X0015629Y0024032D01*
X0015651Y0024183D01*
X0015676Y0024334D01*
X0015706Y0024485D01*
X0015740Y0024635D01*
X0015777Y0024783D01*
X0015818Y0024931D01*
X0015863Y0025077D01*
X0015912Y0025223D01*
X0015965Y0025367D01*
X0016021Y0025509D01*
X0016081Y0025650D01*
X0016145Y0025790D01*
X0016212Y0025928D01*
X0016283Y0026064D01*
X0016358Y0026198D01*
X0016435Y0026330D01*
X0016517Y0026460D01*
X0016601Y0026588D01*
X0016689Y0026714D01*
X0016780Y0026837D01*
X0016874Y0026958D01*
X0016972Y0027076D01*
X0017072Y0027192D01*
X0017176Y0027305D01*
X0017282Y0027416D01*
X0017391Y0027524D01*
X0017503Y0027629D01*
X0017617Y0027730D01*
X0017735Y0027829D01*
X0017854Y0027925D01*
X0017976Y0028018D01*
X0018101Y0028107D01*
X0018228Y0028194D01*
X0018357Y0028276D01*
X0018488Y0028356D01*
X0018621Y0028432D01*
X0018756Y0028505D01*
X0018893Y0028574D01*
X0019032Y0028639D01*
X0019172Y0028701D01*
X0019314Y0028759D01*
X0019457Y0028814D01*
X0019602Y0028865D01*
X0019748Y0028912D01*
X0019895Y0028955D01*
X0020043Y0028994D01*
X0020192Y0029030D01*
X0020342Y0029061D01*
X0020493Y0029089D01*
X0020644Y0029113D01*
X0020797Y0029133D01*
X0020949Y0029149D01*
X0021102Y0029161D01*
X0021255Y0029169D01*
X0021408Y0029173D01*
X0021562Y0029173D01*
X0021715Y0029169D01*
X0021868Y0029161D01*
X0022021Y0029149D01*
X0022173Y0029133D01*
X0022326Y0029113D01*
X0022477Y0029089D01*
X0022628Y0029061D01*
X0022778Y0029030D01*
X0022927Y0028994D01*
X0023075Y0028955D01*
X0023222Y0028912D01*
X0023368Y0028865D01*
X0023513Y0028814D01*
X0023656Y0028759D01*
X0023798Y0028701D01*
X0023938Y0028639D01*
X0024077Y0028574D01*
X0024214Y0028505D01*
X0024349Y0028432D01*
X0024482Y0028356D01*
X0024613Y0028276D01*
X0024742Y0028194D01*
X0024869Y0028107D01*
X0024994Y0028018D01*
X0025116Y0027925D01*
X0025235Y0027829D01*
X0025353Y0027730D01*
X0025467Y0027629D01*
X0025579Y0027524D01*
X0025688Y0027416D01*
X0025794Y0027305D01*
X0025898Y0027192D01*
X0025998Y0027076D01*
X0026096Y0026958D01*
X0026190Y0026837D01*
X0026281Y0026714D01*
X0026369Y0026588D01*
X0026453Y0026460D01*
X0026535Y0026330D01*
X0026612Y0026198D01*
X0026687Y0026064D01*
X0026758Y0025928D01*
X0026825Y0025790D01*
X0026889Y0025650D01*
X0026949Y0025509D01*
X0027005Y0025367D01*
X0027058Y0025223D01*
X0027107Y0025077D01*
X0027152Y0024931D01*
X0027193Y0024783D01*
X0027230Y0024635D01*
X0027264Y0024485D01*
X0027294Y0024334D01*
X0027319Y0024183D01*
X0027341Y0024032D01*
X0027359Y0023879D01*
X0027373Y0023727D01*
X0027383Y0023574D01*
X0027389Y0023420D01*
X0027391Y0023267D01*
X0027389Y0023114D01*
X0027383Y0022960D01*
X0027373Y0022807D01*
X0027359Y0022655D01*
X0027341Y0022502D01*
X0027319Y0022351D01*
X0027294Y0022200D01*
X0027264Y0022049D01*
X0027230Y0021899D01*
X0027193Y0021751D01*
X0027152Y0021603D01*
X0027107Y0021457D01*
X0027058Y0021311D01*
X0027005Y0021167D01*
X0026949Y0021025D01*
X0026889Y0020884D01*
X0026825Y0020744D01*
X0026758Y0020606D01*
X0026687Y0020470D01*
X0026612Y0020336D01*
X0026535Y0020204D01*
X0026453Y0020074D01*
X0026369Y0019946D01*
X0026281Y0019820D01*
X0026190Y0019697D01*
X0026096Y0019576D01*
X0025998Y0019458D01*
X0025898Y0019342D01*
X0025794Y0019229D01*
X0025688Y0019118D01*
X0025579Y0019010D01*
X0025467Y0018905D01*
X0025353Y0018804D01*
X0025235Y0018705D01*
X0025116Y0018609D01*
X0024994Y0018516D01*
X0024869Y0018427D01*
X0024742Y0018340D01*
X0024613Y0018258D01*
X0024482Y0018178D01*
X0024349Y0018102D01*
X0024214Y0018029D01*
X0024077Y0017960D01*
X0023938Y0017895D01*
X0023798Y0017833D01*
X0023656Y0017775D01*
X0023513Y0017720D01*
X0023368Y0017669D01*
X0023222Y0017622D01*
X0023075Y0017579D01*
X0022927Y0017540D01*
X0022778Y0017504D01*
X0022628Y0017473D01*
X0022477Y0017445D01*
X0022326Y0017421D01*
X0022173Y0017401D01*
X0022021Y0017385D01*
X0021868Y0017373D01*
X0021715Y0017365D01*
X0021562Y0017361D01*
X0021408Y0017361D01*
X0021255Y0017365D01*
X0021102Y0017373D01*
X0020949Y0017385D01*
X0020797Y0017401D01*
X0020644Y0017421D01*
X0020493Y0017445D01*
X0020342Y0017473D01*
X0020192Y0017504D01*
X0020043Y0017540D01*
X0019895Y0017579D01*
X0019748Y0017622D01*
X0019602Y0017669D01*
X0019457Y0017720D01*
X0019314Y0017775D01*
X0019172Y0017833D01*
X0019032Y0017895D01*
X0018893Y0017960D01*
X0018756Y0018029D01*
X0018621Y0018102D01*
X0018488Y0018178D01*
X0018357Y0018258D01*
X0018228Y0018340D01*
X0018101Y0018427D01*
X0017976Y0018516D01*
X0017854Y0018609D01*
X0017735Y0018705D01*
X0017617Y0018804D01*
X0017503Y0018905D01*
X0017391Y0019010D01*
X0017282Y0019118D01*
X0017176Y0019229D01*
X0017072Y0019342D01*
X0016972Y0019458D01*
X0016874Y0019576D01*
X0016780Y0019697D01*
X0016689Y0019820D01*
X0016601Y0019946D01*
X0016517Y0020074D01*
X0016435Y0020204D01*
X0016358Y0020336D01*
X0016283Y0020470D01*
X0016212Y0020606D01*
X0016145Y0020744D01*
X0016081Y0020884D01*
X0016021Y0021025D01*
X0015965Y0021167D01*
X0015912Y0021311D01*
X0015863Y0021457D01*
X0015818Y0021603D01*
X0015777Y0021751D01*
X0015740Y0021899D01*
X0015706Y0022049D01*
X0015676Y0022200D01*
X0015651Y0022351D01*
X0015629Y0022502D01*
X0015611Y0022655D01*
X0015597Y0022807D01*
X0015587Y0022960D01*
X0015581Y0023114D01*
X0015579Y0023267D01*
X0015579Y0377598D02*
X0015581Y0377751D01*
X0015587Y0377905D01*
X0015597Y0378058D01*
X0015611Y0378210D01*
X0015629Y0378363D01*
X0015651Y0378514D01*
X0015676Y0378665D01*
X0015706Y0378816D01*
X0015740Y0378966D01*
X0015777Y0379114D01*
X0015818Y0379262D01*
X0015863Y0379408D01*
X0015912Y0379554D01*
X0015965Y0379698D01*
X0016021Y0379840D01*
X0016081Y0379981D01*
X0016145Y0380121D01*
X0016212Y0380259D01*
X0016283Y0380395D01*
X0016358Y0380529D01*
X0016435Y0380661D01*
X0016517Y0380791D01*
X0016601Y0380919D01*
X0016689Y0381045D01*
X0016780Y0381168D01*
X0016874Y0381289D01*
X0016972Y0381407D01*
X0017072Y0381523D01*
X0017176Y0381636D01*
X0017282Y0381747D01*
X0017391Y0381855D01*
X0017503Y0381960D01*
X0017617Y0382061D01*
X0017735Y0382160D01*
X0017854Y0382256D01*
X0017976Y0382349D01*
X0018101Y0382438D01*
X0018228Y0382525D01*
X0018357Y0382607D01*
X0018488Y0382687D01*
X0018621Y0382763D01*
X0018756Y0382836D01*
X0018893Y0382905D01*
X0019032Y0382970D01*
X0019172Y0383032D01*
X0019314Y0383090D01*
X0019457Y0383145D01*
X0019602Y0383196D01*
X0019748Y0383243D01*
X0019895Y0383286D01*
X0020043Y0383325D01*
X0020192Y0383361D01*
X0020342Y0383392D01*
X0020493Y0383420D01*
X0020644Y0383444D01*
X0020797Y0383464D01*
X0020949Y0383480D01*
X0021102Y0383492D01*
X0021255Y0383500D01*
X0021408Y0383504D01*
X0021562Y0383504D01*
X0021715Y0383500D01*
X0021868Y0383492D01*
X0022021Y0383480D01*
X0022173Y0383464D01*
X0022326Y0383444D01*
X0022477Y0383420D01*
X0022628Y0383392D01*
X0022778Y0383361D01*
X0022927Y0383325D01*
X0023075Y0383286D01*
X0023222Y0383243D01*
X0023368Y0383196D01*
X0023513Y0383145D01*
X0023656Y0383090D01*
X0023798Y0383032D01*
X0023938Y0382970D01*
X0024077Y0382905D01*
X0024214Y0382836D01*
X0024349Y0382763D01*
X0024482Y0382687D01*
X0024613Y0382607D01*
X0024742Y0382525D01*
X0024869Y0382438D01*
X0024994Y0382349D01*
X0025116Y0382256D01*
X0025235Y0382160D01*
X0025353Y0382061D01*
X0025467Y0381960D01*
X0025579Y0381855D01*
X0025688Y0381747D01*
X0025794Y0381636D01*
X0025898Y0381523D01*
X0025998Y0381407D01*
X0026096Y0381289D01*
X0026190Y0381168D01*
X0026281Y0381045D01*
X0026369Y0380919D01*
X0026453Y0380791D01*
X0026535Y0380661D01*
X0026612Y0380529D01*
X0026687Y0380395D01*
X0026758Y0380259D01*
X0026825Y0380121D01*
X0026889Y0379981D01*
X0026949Y0379840D01*
X0027005Y0379698D01*
X0027058Y0379554D01*
X0027107Y0379408D01*
X0027152Y0379262D01*
X0027193Y0379114D01*
X0027230Y0378966D01*
X0027264Y0378816D01*
X0027294Y0378665D01*
X0027319Y0378514D01*
X0027341Y0378363D01*
X0027359Y0378210D01*
X0027373Y0378058D01*
X0027383Y0377905D01*
X0027389Y0377751D01*
X0027391Y0377598D01*
X0027389Y0377445D01*
X0027383Y0377291D01*
X0027373Y0377138D01*
X0027359Y0376986D01*
X0027341Y0376833D01*
X0027319Y0376682D01*
X0027294Y0376531D01*
X0027264Y0376380D01*
X0027230Y0376230D01*
X0027193Y0376082D01*
X0027152Y0375934D01*
X0027107Y0375788D01*
X0027058Y0375642D01*
X0027005Y0375498D01*
X0026949Y0375356D01*
X0026889Y0375215D01*
X0026825Y0375075D01*
X0026758Y0374937D01*
X0026687Y0374801D01*
X0026612Y0374667D01*
X0026535Y0374535D01*
X0026453Y0374405D01*
X0026369Y0374277D01*
X0026281Y0374151D01*
X0026190Y0374028D01*
X0026096Y0373907D01*
X0025998Y0373789D01*
X0025898Y0373673D01*
X0025794Y0373560D01*
X0025688Y0373449D01*
X0025579Y0373341D01*
X0025467Y0373236D01*
X0025353Y0373135D01*
X0025235Y0373036D01*
X0025116Y0372940D01*
X0024994Y0372847D01*
X0024869Y0372758D01*
X0024742Y0372671D01*
X0024613Y0372589D01*
X0024482Y0372509D01*
X0024349Y0372433D01*
X0024214Y0372360D01*
X0024077Y0372291D01*
X0023938Y0372226D01*
X0023798Y0372164D01*
X0023656Y0372106D01*
X0023513Y0372051D01*
X0023368Y0372000D01*
X0023222Y0371953D01*
X0023075Y0371910D01*
X0022927Y0371871D01*
X0022778Y0371835D01*
X0022628Y0371804D01*
X0022477Y0371776D01*
X0022326Y0371752D01*
X0022173Y0371732D01*
X0022021Y0371716D01*
X0021868Y0371704D01*
X0021715Y0371696D01*
X0021562Y0371692D01*
X0021408Y0371692D01*
X0021255Y0371696D01*
X0021102Y0371704D01*
X0020949Y0371716D01*
X0020797Y0371732D01*
X0020644Y0371752D01*
X0020493Y0371776D01*
X0020342Y0371804D01*
X0020192Y0371835D01*
X0020043Y0371871D01*
X0019895Y0371910D01*
X0019748Y0371953D01*
X0019602Y0372000D01*
X0019457Y0372051D01*
X0019314Y0372106D01*
X0019172Y0372164D01*
X0019032Y0372226D01*
X0018893Y0372291D01*
X0018756Y0372360D01*
X0018621Y0372433D01*
X0018488Y0372509D01*
X0018357Y0372589D01*
X0018228Y0372671D01*
X0018101Y0372758D01*
X0017976Y0372847D01*
X0017854Y0372940D01*
X0017735Y0373036D01*
X0017617Y0373135D01*
X0017503Y0373236D01*
X0017391Y0373341D01*
X0017282Y0373449D01*
X0017176Y0373560D01*
X0017072Y0373673D01*
X0016972Y0373789D01*
X0016874Y0373907D01*
X0016780Y0374028D01*
X0016689Y0374151D01*
X0016601Y0374277D01*
X0016517Y0374405D01*
X0016435Y0374535D01*
X0016358Y0374667D01*
X0016283Y0374801D01*
X0016212Y0374937D01*
X0016145Y0375075D01*
X0016081Y0375215D01*
X0016021Y0375356D01*
X0015965Y0375498D01*
X0015912Y0375642D01*
X0015863Y0375788D01*
X0015818Y0375934D01*
X0015777Y0376082D01*
X0015740Y0376230D01*
X0015706Y0376380D01*
X0015676Y0376531D01*
X0015651Y0376682D01*
X0015629Y0376833D01*
X0015611Y0376986D01*
X0015597Y0377138D01*
X0015587Y0377291D01*
X0015581Y0377445D01*
X0015579Y0377598D01*
X0448650Y0377598D02*
X0448652Y0377751D01*
X0448658Y0377905D01*
X0448668Y0378058D01*
X0448682Y0378210D01*
X0448700Y0378363D01*
X0448722Y0378514D01*
X0448747Y0378665D01*
X0448777Y0378816D01*
X0448811Y0378966D01*
X0448848Y0379114D01*
X0448889Y0379262D01*
X0448934Y0379408D01*
X0448983Y0379554D01*
X0449036Y0379698D01*
X0449092Y0379840D01*
X0449152Y0379981D01*
X0449216Y0380121D01*
X0449283Y0380259D01*
X0449354Y0380395D01*
X0449429Y0380529D01*
X0449506Y0380661D01*
X0449588Y0380791D01*
X0449672Y0380919D01*
X0449760Y0381045D01*
X0449851Y0381168D01*
X0449945Y0381289D01*
X0450043Y0381407D01*
X0450143Y0381523D01*
X0450247Y0381636D01*
X0450353Y0381747D01*
X0450462Y0381855D01*
X0450574Y0381960D01*
X0450688Y0382061D01*
X0450806Y0382160D01*
X0450925Y0382256D01*
X0451047Y0382349D01*
X0451172Y0382438D01*
X0451299Y0382525D01*
X0451428Y0382607D01*
X0451559Y0382687D01*
X0451692Y0382763D01*
X0451827Y0382836D01*
X0451964Y0382905D01*
X0452103Y0382970D01*
X0452243Y0383032D01*
X0452385Y0383090D01*
X0452528Y0383145D01*
X0452673Y0383196D01*
X0452819Y0383243D01*
X0452966Y0383286D01*
X0453114Y0383325D01*
X0453263Y0383361D01*
X0453413Y0383392D01*
X0453564Y0383420D01*
X0453715Y0383444D01*
X0453868Y0383464D01*
X0454020Y0383480D01*
X0454173Y0383492D01*
X0454326Y0383500D01*
X0454479Y0383504D01*
X0454633Y0383504D01*
X0454786Y0383500D01*
X0454939Y0383492D01*
X0455092Y0383480D01*
X0455244Y0383464D01*
X0455397Y0383444D01*
X0455548Y0383420D01*
X0455699Y0383392D01*
X0455849Y0383361D01*
X0455998Y0383325D01*
X0456146Y0383286D01*
X0456293Y0383243D01*
X0456439Y0383196D01*
X0456584Y0383145D01*
X0456727Y0383090D01*
X0456869Y0383032D01*
X0457009Y0382970D01*
X0457148Y0382905D01*
X0457285Y0382836D01*
X0457420Y0382763D01*
X0457553Y0382687D01*
X0457684Y0382607D01*
X0457813Y0382525D01*
X0457940Y0382438D01*
X0458065Y0382349D01*
X0458187Y0382256D01*
X0458306Y0382160D01*
X0458424Y0382061D01*
X0458538Y0381960D01*
X0458650Y0381855D01*
X0458759Y0381747D01*
X0458865Y0381636D01*
X0458969Y0381523D01*
X0459069Y0381407D01*
X0459167Y0381289D01*
X0459261Y0381168D01*
X0459352Y0381045D01*
X0459440Y0380919D01*
X0459524Y0380791D01*
X0459606Y0380661D01*
X0459683Y0380529D01*
X0459758Y0380395D01*
X0459829Y0380259D01*
X0459896Y0380121D01*
X0459960Y0379981D01*
X0460020Y0379840D01*
X0460076Y0379698D01*
X0460129Y0379554D01*
X0460178Y0379408D01*
X0460223Y0379262D01*
X0460264Y0379114D01*
X0460301Y0378966D01*
X0460335Y0378816D01*
X0460365Y0378665D01*
X0460390Y0378514D01*
X0460412Y0378363D01*
X0460430Y0378210D01*
X0460444Y0378058D01*
X0460454Y0377905D01*
X0460460Y0377751D01*
X0460462Y0377598D01*
X0460460Y0377445D01*
X0460454Y0377291D01*
X0460444Y0377138D01*
X0460430Y0376986D01*
X0460412Y0376833D01*
X0460390Y0376682D01*
X0460365Y0376531D01*
X0460335Y0376380D01*
X0460301Y0376230D01*
X0460264Y0376082D01*
X0460223Y0375934D01*
X0460178Y0375788D01*
X0460129Y0375642D01*
X0460076Y0375498D01*
X0460020Y0375356D01*
X0459960Y0375215D01*
X0459896Y0375075D01*
X0459829Y0374937D01*
X0459758Y0374801D01*
X0459683Y0374667D01*
X0459606Y0374535D01*
X0459524Y0374405D01*
X0459440Y0374277D01*
X0459352Y0374151D01*
X0459261Y0374028D01*
X0459167Y0373907D01*
X0459069Y0373789D01*
X0458969Y0373673D01*
X0458865Y0373560D01*
X0458759Y0373449D01*
X0458650Y0373341D01*
X0458538Y0373236D01*
X0458424Y0373135D01*
X0458306Y0373036D01*
X0458187Y0372940D01*
X0458065Y0372847D01*
X0457940Y0372758D01*
X0457813Y0372671D01*
X0457684Y0372589D01*
X0457553Y0372509D01*
X0457420Y0372433D01*
X0457285Y0372360D01*
X0457148Y0372291D01*
X0457009Y0372226D01*
X0456869Y0372164D01*
X0456727Y0372106D01*
X0456584Y0372051D01*
X0456439Y0372000D01*
X0456293Y0371953D01*
X0456146Y0371910D01*
X0455998Y0371871D01*
X0455849Y0371835D01*
X0455699Y0371804D01*
X0455548Y0371776D01*
X0455397Y0371752D01*
X0455244Y0371732D01*
X0455092Y0371716D01*
X0454939Y0371704D01*
X0454786Y0371696D01*
X0454633Y0371692D01*
X0454479Y0371692D01*
X0454326Y0371696D01*
X0454173Y0371704D01*
X0454020Y0371716D01*
X0453868Y0371732D01*
X0453715Y0371752D01*
X0453564Y0371776D01*
X0453413Y0371804D01*
X0453263Y0371835D01*
X0453114Y0371871D01*
X0452966Y0371910D01*
X0452819Y0371953D01*
X0452673Y0372000D01*
X0452528Y0372051D01*
X0452385Y0372106D01*
X0452243Y0372164D01*
X0452103Y0372226D01*
X0451964Y0372291D01*
X0451827Y0372360D01*
X0451692Y0372433D01*
X0451559Y0372509D01*
X0451428Y0372589D01*
X0451299Y0372671D01*
X0451172Y0372758D01*
X0451047Y0372847D01*
X0450925Y0372940D01*
X0450806Y0373036D01*
X0450688Y0373135D01*
X0450574Y0373236D01*
X0450462Y0373341D01*
X0450353Y0373449D01*
X0450247Y0373560D01*
X0450143Y0373673D01*
X0450043Y0373789D01*
X0449945Y0373907D01*
X0449851Y0374028D01*
X0449760Y0374151D01*
X0449672Y0374277D01*
X0449588Y0374405D01*
X0449506Y0374535D01*
X0449429Y0374667D01*
X0449354Y0374801D01*
X0449283Y0374937D01*
X0449216Y0375075D01*
X0449152Y0375215D01*
X0449092Y0375356D01*
X0449036Y0375498D01*
X0448983Y0375642D01*
X0448934Y0375788D01*
X0448889Y0375934D01*
X0448848Y0376082D01*
X0448811Y0376230D01*
X0448777Y0376380D01*
X0448747Y0376531D01*
X0448722Y0376682D01*
X0448700Y0376833D01*
X0448682Y0376986D01*
X0448668Y0377138D01*
X0448658Y0377291D01*
X0448652Y0377445D01*
X0448650Y0377598D01*
X0448650Y0023267D02*
X0448652Y0023420D01*
X0448658Y0023574D01*
X0448668Y0023727D01*
X0448682Y0023879D01*
X0448700Y0024032D01*
X0448722Y0024183D01*
X0448747Y0024334D01*
X0448777Y0024485D01*
X0448811Y0024635D01*
X0448848Y0024783D01*
X0448889Y0024931D01*
X0448934Y0025077D01*
X0448983Y0025223D01*
X0449036Y0025367D01*
X0449092Y0025509D01*
X0449152Y0025650D01*
X0449216Y0025790D01*
X0449283Y0025928D01*
X0449354Y0026064D01*
X0449429Y0026198D01*
X0449506Y0026330D01*
X0449588Y0026460D01*
X0449672Y0026588D01*
X0449760Y0026714D01*
X0449851Y0026837D01*
X0449945Y0026958D01*
X0450043Y0027076D01*
X0450143Y0027192D01*
X0450247Y0027305D01*
X0450353Y0027416D01*
X0450462Y0027524D01*
X0450574Y0027629D01*
X0450688Y0027730D01*
X0450806Y0027829D01*
X0450925Y0027925D01*
X0451047Y0028018D01*
X0451172Y0028107D01*
X0451299Y0028194D01*
X0451428Y0028276D01*
X0451559Y0028356D01*
X0451692Y0028432D01*
X0451827Y0028505D01*
X0451964Y0028574D01*
X0452103Y0028639D01*
X0452243Y0028701D01*
X0452385Y0028759D01*
X0452528Y0028814D01*
X0452673Y0028865D01*
X0452819Y0028912D01*
X0452966Y0028955D01*
X0453114Y0028994D01*
X0453263Y0029030D01*
X0453413Y0029061D01*
X0453564Y0029089D01*
X0453715Y0029113D01*
X0453868Y0029133D01*
X0454020Y0029149D01*
X0454173Y0029161D01*
X0454326Y0029169D01*
X0454479Y0029173D01*
X0454633Y0029173D01*
X0454786Y0029169D01*
X0454939Y0029161D01*
X0455092Y0029149D01*
X0455244Y0029133D01*
X0455397Y0029113D01*
X0455548Y0029089D01*
X0455699Y0029061D01*
X0455849Y0029030D01*
X0455998Y0028994D01*
X0456146Y0028955D01*
X0456293Y0028912D01*
X0456439Y0028865D01*
X0456584Y0028814D01*
X0456727Y0028759D01*
X0456869Y0028701D01*
X0457009Y0028639D01*
X0457148Y0028574D01*
X0457285Y0028505D01*
X0457420Y0028432D01*
X0457553Y0028356D01*
X0457684Y0028276D01*
X0457813Y0028194D01*
X0457940Y0028107D01*
X0458065Y0028018D01*
X0458187Y0027925D01*
X0458306Y0027829D01*
X0458424Y0027730D01*
X0458538Y0027629D01*
X0458650Y0027524D01*
X0458759Y0027416D01*
X0458865Y0027305D01*
X0458969Y0027192D01*
X0459069Y0027076D01*
X0459167Y0026958D01*
X0459261Y0026837D01*
X0459352Y0026714D01*
X0459440Y0026588D01*
X0459524Y0026460D01*
X0459606Y0026330D01*
X0459683Y0026198D01*
X0459758Y0026064D01*
X0459829Y0025928D01*
X0459896Y0025790D01*
X0459960Y0025650D01*
X0460020Y0025509D01*
X0460076Y0025367D01*
X0460129Y0025223D01*
X0460178Y0025077D01*
X0460223Y0024931D01*
X0460264Y0024783D01*
X0460301Y0024635D01*
X0460335Y0024485D01*
X0460365Y0024334D01*
X0460390Y0024183D01*
X0460412Y0024032D01*
X0460430Y0023879D01*
X0460444Y0023727D01*
X0460454Y0023574D01*
X0460460Y0023420D01*
X0460462Y0023267D01*
X0460460Y0023114D01*
X0460454Y0022960D01*
X0460444Y0022807D01*
X0460430Y0022655D01*
X0460412Y0022502D01*
X0460390Y0022351D01*
X0460365Y0022200D01*
X0460335Y0022049D01*
X0460301Y0021899D01*
X0460264Y0021751D01*
X0460223Y0021603D01*
X0460178Y0021457D01*
X0460129Y0021311D01*
X0460076Y0021167D01*
X0460020Y0021025D01*
X0459960Y0020884D01*
X0459896Y0020744D01*
X0459829Y0020606D01*
X0459758Y0020470D01*
X0459683Y0020336D01*
X0459606Y0020204D01*
X0459524Y0020074D01*
X0459440Y0019946D01*
X0459352Y0019820D01*
X0459261Y0019697D01*
X0459167Y0019576D01*
X0459069Y0019458D01*
X0458969Y0019342D01*
X0458865Y0019229D01*
X0458759Y0019118D01*
X0458650Y0019010D01*
X0458538Y0018905D01*
X0458424Y0018804D01*
X0458306Y0018705D01*
X0458187Y0018609D01*
X0458065Y0018516D01*
X0457940Y0018427D01*
X0457813Y0018340D01*
X0457684Y0018258D01*
X0457553Y0018178D01*
X0457420Y0018102D01*
X0457285Y0018029D01*
X0457148Y0017960D01*
X0457009Y0017895D01*
X0456869Y0017833D01*
X0456727Y0017775D01*
X0456584Y0017720D01*
X0456439Y0017669D01*
X0456293Y0017622D01*
X0456146Y0017579D01*
X0455998Y0017540D01*
X0455849Y0017504D01*
X0455699Y0017473D01*
X0455548Y0017445D01*
X0455397Y0017421D01*
X0455244Y0017401D01*
X0455092Y0017385D01*
X0454939Y0017373D01*
X0454786Y0017365D01*
X0454633Y0017361D01*
X0454479Y0017361D01*
X0454326Y0017365D01*
X0454173Y0017373D01*
X0454020Y0017385D01*
X0453868Y0017401D01*
X0453715Y0017421D01*
X0453564Y0017445D01*
X0453413Y0017473D01*
X0453263Y0017504D01*
X0453114Y0017540D01*
X0452966Y0017579D01*
X0452819Y0017622D01*
X0452673Y0017669D01*
X0452528Y0017720D01*
X0452385Y0017775D01*
X0452243Y0017833D01*
X0452103Y0017895D01*
X0451964Y0017960D01*
X0451827Y0018029D01*
X0451692Y0018102D01*
X0451559Y0018178D01*
X0451428Y0018258D01*
X0451299Y0018340D01*
X0451172Y0018427D01*
X0451047Y0018516D01*
X0450925Y0018609D01*
X0450806Y0018705D01*
X0450688Y0018804D01*
X0450574Y0018905D01*
X0450462Y0019010D01*
X0450353Y0019118D01*
X0450247Y0019229D01*
X0450143Y0019342D01*
X0450043Y0019458D01*
X0449945Y0019576D01*
X0449851Y0019697D01*
X0449760Y0019820D01*
X0449672Y0019946D01*
X0449588Y0020074D01*
X0449506Y0020204D01*
X0449429Y0020336D01*
X0449354Y0020470D01*
X0449283Y0020606D01*
X0449216Y0020744D01*
X0449152Y0020884D01*
X0449092Y0021025D01*
X0449036Y0021167D01*
X0448983Y0021311D01*
X0448934Y0021457D01*
X0448889Y0021603D01*
X0448848Y0021751D01*
X0448811Y0021899D01*
X0448777Y0022049D01*
X0448747Y0022200D01*
X0448722Y0022351D01*
X0448700Y0022502D01*
X0448682Y0022655D01*
X0448668Y0022807D01*
X0448658Y0022960D01*
X0448652Y0023114D01*
X0448650Y0023267D01*
D11*
X0165068Y0164055D03*
X0158375Y0164055D03*
X0158454Y0198582D03*
X0165146Y0198582D03*
X0165146Y0233582D03*
X0158454Y0233582D03*
X0105146Y0228582D03*
X0098454Y0228582D03*
X0045146Y0228582D03*
X0038454Y0228582D03*
X0038454Y0278582D03*
X0045146Y0278582D03*
X0098454Y0278582D03*
X0105146Y0278582D03*
X0158454Y0288582D03*
X0165146Y0288582D03*
X0105146Y0328582D03*
X0098454Y0328582D03*
X0045146Y0328582D03*
X0038454Y0328582D03*
X0098454Y0378582D03*
X0105146Y0378582D03*
X0158454Y0378582D03*
X0165146Y0378582D03*
X0045146Y0178582D03*
X0038454Y0178582D03*
X0038454Y0128582D03*
X0045146Y0128582D03*
D12*
X0211800Y0084582D03*
X0261800Y0084582D03*
X0426800Y0023582D03*
D13*
X0416800Y0023582D03*
X0261800Y0074582D03*
X0211800Y0074582D03*
D14*
X0149800Y0086582D03*
X0139800Y0086582D03*
D15*
X0257469Y0119842D03*
X0257469Y0127323D03*
X0266131Y0123582D03*
X0257469Y0134842D03*
X0266131Y0138582D03*
X0257469Y0142323D03*
X0257469Y0149842D03*
X0266131Y0153582D03*
X0257469Y0157323D03*
X0257469Y0164842D03*
X0266131Y0168582D03*
X0257469Y0172323D03*
X0257469Y0179842D03*
X0257469Y0187323D03*
X0266131Y0183582D03*
X0257469Y0194842D03*
X0266131Y0198582D03*
X0257469Y0202323D03*
X0257469Y0209842D03*
X0266131Y0213582D03*
X0257469Y0217323D03*
X0257469Y0224842D03*
X0266131Y0228582D03*
X0257469Y0232323D03*
X0257469Y0239842D03*
X0257469Y0247323D03*
X0266131Y0243582D03*
X0257469Y0254842D03*
X0266131Y0258582D03*
X0257469Y0262323D03*
X0257469Y0269842D03*
X0266131Y0273582D03*
X0257469Y0277323D03*
X0257469Y0284842D03*
X0266131Y0288582D03*
X0257469Y0292323D03*
X0257469Y0299842D03*
X0266131Y0303582D03*
X0257469Y0307323D03*
X0257469Y0314842D03*
X0266131Y0318582D03*
X0257469Y0322323D03*
X0257469Y0329842D03*
X0266131Y0333582D03*
X0257469Y0337323D03*
X0257469Y0344842D03*
X0266131Y0348582D03*
X0257469Y0352323D03*
X0322469Y0352323D03*
X0322469Y0344842D03*
X0322469Y0337323D03*
X0322469Y0329842D03*
X0322469Y0322323D03*
X0322469Y0314842D03*
X0322469Y0307323D03*
X0322469Y0299842D03*
X0322469Y0292323D03*
X0322469Y0284842D03*
X0322469Y0277323D03*
X0322469Y0269842D03*
X0322469Y0262323D03*
X0322469Y0254842D03*
X0322469Y0247323D03*
X0322469Y0239842D03*
X0322469Y0232323D03*
X0322469Y0224842D03*
X0322469Y0217323D03*
X0322469Y0209842D03*
X0322469Y0202323D03*
X0322469Y0194842D03*
X0322469Y0187323D03*
X0322469Y0179842D03*
X0322469Y0172323D03*
X0322469Y0164842D03*
X0322469Y0157323D03*
X0322469Y0149842D03*
X0322469Y0142323D03*
X0322469Y0134842D03*
X0322469Y0127323D03*
X0322469Y0119842D03*
X0331131Y0123582D03*
X0331131Y0138582D03*
X0331131Y0153582D03*
X0331131Y0168582D03*
X0331131Y0183582D03*
X0331131Y0198582D03*
X0331131Y0213582D03*
X0331131Y0228582D03*
X0331131Y0243582D03*
X0331131Y0258582D03*
X0331131Y0273582D03*
X0331131Y0288582D03*
X0331131Y0303582D03*
X0331131Y0318582D03*
X0331131Y0333582D03*
X0331131Y0348582D03*
X0387469Y0344842D03*
X0387469Y0352323D03*
X0396131Y0348582D03*
X0387469Y0337323D03*
X0387469Y0329842D03*
X0387469Y0322323D03*
X0387469Y0314842D03*
X0387469Y0307323D03*
X0387469Y0299842D03*
X0387469Y0292323D03*
X0387469Y0284842D03*
X0387469Y0277323D03*
X0387469Y0269842D03*
X0387469Y0262323D03*
X0387469Y0254842D03*
X0387469Y0247323D03*
X0387469Y0239842D03*
X0387469Y0232323D03*
X0387469Y0224842D03*
X0387469Y0217323D03*
X0387469Y0209842D03*
X0387469Y0202323D03*
X0387469Y0194842D03*
X0387469Y0187323D03*
X0387469Y0179842D03*
X0387469Y0172323D03*
X0387469Y0164842D03*
X0387469Y0157323D03*
X0387469Y0149842D03*
X0387469Y0142323D03*
X0387469Y0134842D03*
X0387469Y0127323D03*
X0387469Y0119842D03*
X0396131Y0123582D03*
X0396131Y0138582D03*
X0396131Y0153582D03*
X0396131Y0168582D03*
X0396131Y0183582D03*
X0396131Y0198582D03*
X0396131Y0213582D03*
X0396131Y0228582D03*
X0396131Y0243582D03*
X0396131Y0258582D03*
X0396131Y0273582D03*
X0396131Y0288582D03*
X0396131Y0303582D03*
X0396131Y0318582D03*
X0396131Y0333582D03*
X0452469Y0329842D03*
X0461131Y0333582D03*
X0452469Y0337323D03*
X0452469Y0344842D03*
X0461131Y0348582D03*
X0452469Y0352323D03*
X0452469Y0322323D03*
X0461131Y0318582D03*
X0452469Y0314842D03*
X0452469Y0307323D03*
X0461131Y0303582D03*
X0452469Y0299842D03*
X0452469Y0292323D03*
X0461131Y0288582D03*
X0452469Y0284842D03*
X0452469Y0277323D03*
X0461131Y0273582D03*
X0452469Y0269842D03*
X0452469Y0262323D03*
X0461131Y0258582D03*
X0452469Y0254842D03*
X0452469Y0247323D03*
X0452469Y0239842D03*
X0461131Y0243582D03*
X0452469Y0232323D03*
X0461131Y0228582D03*
X0452469Y0224842D03*
X0452469Y0217323D03*
X0461131Y0213582D03*
X0452469Y0209842D03*
X0452469Y0202323D03*
X0461131Y0198582D03*
X0452469Y0194842D03*
X0452469Y0187323D03*
X0452469Y0179842D03*
X0461131Y0183582D03*
X0452469Y0172323D03*
X0461131Y0168582D03*
X0452469Y0164842D03*
X0452469Y0157323D03*
X0461131Y0153582D03*
X0452469Y0149842D03*
X0452469Y0142323D03*
X0461131Y0138582D03*
X0452469Y0134842D03*
X0452469Y0127323D03*
X0452469Y0119842D03*
X0461131Y0123582D03*
D16*
X0172477Y0248582D03*
X0172477Y0253582D03*
X0172477Y0258582D03*
X0172477Y0263582D03*
X0172477Y0268582D03*
X0172477Y0273582D03*
X0172477Y0278582D03*
X0151123Y0278582D03*
X0151123Y0273582D03*
X0151123Y0268582D03*
X0151123Y0263582D03*
X0151123Y0258582D03*
X0151123Y0253582D03*
X0151123Y0248582D03*
X0112477Y0248582D03*
X0112477Y0243582D03*
X0112477Y0238582D03*
X0112477Y0253582D03*
X0112477Y0258582D03*
X0112477Y0263582D03*
X0112477Y0268582D03*
X0112477Y0286082D03*
X0112477Y0291082D03*
X0112477Y0296082D03*
X0112477Y0301082D03*
X0112477Y0306082D03*
X0112477Y0311082D03*
X0112477Y0316082D03*
X0112477Y0321082D03*
X0112477Y0336082D03*
X0112477Y0341082D03*
X0112477Y0346082D03*
X0112477Y0351082D03*
X0112477Y0356082D03*
X0112477Y0361082D03*
X0112477Y0366082D03*
X0112477Y0371082D03*
X0091123Y0371082D03*
X0091123Y0366082D03*
X0091123Y0361082D03*
X0091123Y0356082D03*
X0091123Y0351082D03*
X0091123Y0346082D03*
X0091123Y0341082D03*
X0091123Y0336082D03*
X0091123Y0321082D03*
X0091123Y0316082D03*
X0091123Y0311082D03*
X0091123Y0306082D03*
X0091123Y0301082D03*
X0091123Y0296082D03*
X0091123Y0291082D03*
X0091123Y0286082D03*
X0091123Y0268582D03*
X0091123Y0263582D03*
X0091123Y0258582D03*
X0091123Y0253582D03*
X0091123Y0248582D03*
X0091123Y0243582D03*
X0091123Y0238582D03*
X0091123Y0218582D03*
X0091123Y0213582D03*
X0091123Y0208582D03*
X0091123Y0203582D03*
X0091123Y0198582D03*
X0091123Y0193582D03*
X0091123Y0188582D03*
X0112477Y0188582D03*
X0112477Y0193582D03*
X0112477Y0198582D03*
X0112477Y0203582D03*
X0112477Y0208582D03*
X0112477Y0213582D03*
X0112477Y0218582D03*
X0052477Y0216082D03*
X0052477Y0221082D03*
X0052477Y0211082D03*
X0052477Y0206082D03*
X0052477Y0201082D03*
X0052477Y0196082D03*
X0052477Y0191082D03*
X0052477Y0186082D03*
X0052477Y0171082D03*
X0052477Y0166082D03*
X0052477Y0161082D03*
X0052477Y0156082D03*
X0052477Y0151082D03*
X0052477Y0146082D03*
X0052477Y0141082D03*
X0052477Y0136082D03*
X0052477Y0118582D03*
X0052477Y0113582D03*
X0052477Y0108582D03*
X0052477Y0103582D03*
X0052477Y0098582D03*
X0052477Y0093582D03*
X0052477Y0088582D03*
X0031123Y0088582D03*
X0031123Y0093582D03*
X0031123Y0098582D03*
X0031123Y0103582D03*
X0031123Y0108582D03*
X0031123Y0113582D03*
X0031123Y0118582D03*
X0031123Y0136082D03*
X0031123Y0141082D03*
X0031123Y0146082D03*
X0031123Y0151082D03*
X0031123Y0156082D03*
X0031123Y0161082D03*
X0031123Y0166082D03*
X0031123Y0171082D03*
X0031123Y0186082D03*
X0031123Y0191082D03*
X0031123Y0196082D03*
X0031123Y0201082D03*
X0031123Y0206082D03*
X0031123Y0211082D03*
X0031123Y0216082D03*
X0031123Y0221082D03*
X0031123Y0236082D03*
X0031123Y0241082D03*
X0031123Y0246082D03*
X0031123Y0251082D03*
X0031123Y0256082D03*
X0031123Y0261082D03*
X0031123Y0266082D03*
X0031123Y0271082D03*
X0031123Y0286082D03*
X0031123Y0291082D03*
X0031123Y0296082D03*
X0031123Y0301082D03*
X0031123Y0306082D03*
X0031123Y0311082D03*
X0031123Y0316082D03*
X0031123Y0321082D03*
X0052477Y0321082D03*
X0052477Y0316082D03*
X0052477Y0311082D03*
X0052477Y0306082D03*
X0052477Y0301082D03*
X0052477Y0296082D03*
X0052477Y0291082D03*
X0052477Y0286082D03*
X0052477Y0271082D03*
X0052477Y0266082D03*
X0052477Y0261082D03*
X0052477Y0256082D03*
X0052477Y0251082D03*
X0052477Y0246082D03*
X0052477Y0241082D03*
X0052477Y0236082D03*
D17*
X0150300Y0227582D03*
X0150300Y0224982D03*
X0150300Y0222382D03*
X0150300Y0219882D03*
X0150300Y0217282D03*
X0150300Y0214782D03*
X0150300Y0212182D03*
X0150300Y0209582D03*
X0150300Y0192582D03*
X0150300Y0189982D03*
X0150300Y0187382D03*
X0150300Y0184882D03*
X0150300Y0182282D03*
X0150300Y0179782D03*
X0150300Y0177182D03*
X0150300Y0174582D03*
X0173300Y0174582D03*
X0173300Y0177182D03*
X0173300Y0179782D03*
X0173300Y0182282D03*
X0173300Y0184882D03*
X0173300Y0187382D03*
X0173300Y0189982D03*
X0173300Y0192582D03*
X0173300Y0209582D03*
X0173300Y0212182D03*
X0173300Y0214782D03*
X0173300Y0217282D03*
X0173300Y0219882D03*
X0173300Y0222382D03*
X0173300Y0224982D03*
X0173300Y0227582D03*
D18*
X0180121Y0156122D03*
X0180121Y0151122D03*
X0180121Y0146122D03*
X0180121Y0141122D03*
X0180121Y0136122D03*
X0180121Y0131122D03*
X0180121Y0126122D03*
X0180121Y0121122D03*
X0180121Y0116122D03*
X0180121Y0111122D03*
X0143321Y0111122D03*
X0143321Y0116122D03*
X0143321Y0121122D03*
X0143321Y0126122D03*
X0143321Y0131122D03*
X0143321Y0136122D03*
X0143321Y0141122D03*
X0143321Y0146122D03*
X0143321Y0151122D03*
X0143321Y0156122D03*
D19*
X0146170Y0368582D03*
D20*
X0146170Y0358582D03*
X0146170Y0348582D03*
X0146170Y0338582D03*
X0146170Y0328582D03*
X0146170Y0318582D03*
X0146170Y0308582D03*
X0146170Y0298582D03*
X0177430Y0298582D03*
X0177430Y0308582D03*
X0177430Y0318582D03*
X0177430Y0328582D03*
X0177430Y0338582D03*
X0177430Y0348582D03*
X0177430Y0358582D03*
X0177430Y0368582D03*
D21*
X0427863Y0087480D02*
X0435737Y0087480D01*
X0443611Y0072519D02*
X0443611Y0064645D01*
X0419595Y0064645D02*
X0419595Y0072519D01*
D22*
X0106800Y0021535D03*
X0106800Y0015630D03*
X0096800Y0015630D03*
X0096800Y0021535D03*
X0086800Y0021535D03*
X0086800Y0015630D03*
X0076800Y0015630D03*
X0076800Y0021535D03*
D23*
X0076800Y0044842D03*
X0076800Y0052323D03*
X0066800Y0052323D03*
X0066800Y0044842D03*
X0056800Y0044842D03*
X0056800Y0052323D03*
X0046800Y0052323D03*
X0046800Y0044842D03*
X0036800Y0044842D03*
X0036800Y0052323D03*
X0086800Y0052323D03*
X0086800Y0044842D03*
X0096800Y0044842D03*
X0096800Y0052323D03*
X0106800Y0052323D03*
X0106800Y0044842D03*
X0119800Y0079842D03*
X0119800Y0087323D03*
X0129800Y0087323D03*
X0129800Y0079842D03*
X0164800Y0079842D03*
X0164800Y0087323D03*
X0174800Y0087323D03*
X0174800Y0079842D03*
X0184800Y0079842D03*
X0184800Y0087323D03*
X0206800Y0048323D03*
X0206800Y0040842D03*
X0216800Y0040842D03*
X0216800Y0048323D03*
X0226800Y0048323D03*
X0226800Y0040842D03*
X0251800Y0040842D03*
X0251800Y0048323D03*
X0261800Y0048323D03*
X0261800Y0040842D03*
X0271800Y0040842D03*
X0271800Y0048323D03*
X0321800Y0089842D03*
X0321800Y0097323D03*
X0331800Y0097323D03*
X0331800Y0089842D03*
X0341800Y0089842D03*
X0341800Y0097323D03*
X0351800Y0097323D03*
X0351800Y0089842D03*
X0361800Y0089842D03*
X0361800Y0097323D03*
X0371800Y0097323D03*
X0371800Y0089842D03*
X0381800Y0089842D03*
X0381800Y0097323D03*
X0391800Y0097323D03*
X0391800Y0089842D03*
X0401800Y0089842D03*
X0401800Y0097323D03*
D24*
X0064300Y0034075D03*
X0059300Y0034075D03*
X0054300Y0034075D03*
X0049300Y0034075D03*
X0049300Y0013090D03*
X0054300Y0013090D03*
X0059300Y0013090D03*
X0064300Y0013090D03*
D25*
X0201000Y0015682D02*
X0207000Y0015682D01*
X0226600Y0015682D02*
X0232600Y0015682D01*
X0246000Y0015682D02*
X0252000Y0015682D01*
X0252000Y0033482D02*
X0246000Y0033482D01*
X0232600Y0033482D02*
X0226600Y0033482D01*
X0207000Y0033482D02*
X0201000Y0033482D01*
X0271600Y0033482D02*
X0277600Y0033482D01*
X0277600Y0015682D02*
X0271600Y0015682D01*
D26*
X0180725Y0023782D02*
X0168875Y0023782D01*
X0168875Y0039582D02*
X0180725Y0039582D01*
X0180725Y0055382D02*
X0168875Y0055382D01*
X0142725Y0055382D02*
X0130875Y0055382D01*
X0130875Y0039582D02*
X0142725Y0039582D01*
X0142725Y0023782D02*
X0130875Y0023782D01*
D27*
X0226308Y0126082D03*
X0226308Y0131082D03*
X0226308Y0136082D03*
X0226308Y0141082D03*
X0226308Y0151082D03*
X0226308Y0156082D03*
X0226308Y0161082D03*
X0226308Y0166082D03*
X0247292Y0166082D03*
X0247292Y0161082D03*
X0247292Y0156082D03*
X0247292Y0151082D03*
X0247292Y0141082D03*
X0247292Y0136082D03*
X0247292Y0131082D03*
X0247292Y0126082D03*
X0291308Y0126082D03*
X0291308Y0131082D03*
X0291308Y0136082D03*
X0291308Y0141082D03*
X0291308Y0151082D03*
X0291308Y0156082D03*
X0291308Y0161082D03*
X0291308Y0166082D03*
X0312292Y0166082D03*
X0312292Y0161082D03*
X0312292Y0156082D03*
X0312292Y0151082D03*
X0312292Y0141082D03*
X0312292Y0136082D03*
X0312292Y0131082D03*
X0312292Y0126082D03*
X0356308Y0126082D03*
X0356308Y0131082D03*
X0356308Y0136082D03*
X0356308Y0141082D03*
X0356308Y0151082D03*
X0356308Y0156082D03*
X0356308Y0161082D03*
X0356308Y0166082D03*
X0356308Y0186082D03*
X0356308Y0191082D03*
X0356308Y0196082D03*
X0356308Y0201082D03*
X0356308Y0211082D03*
X0356308Y0216082D03*
X0356308Y0221082D03*
X0356308Y0226082D03*
X0356308Y0246082D03*
X0356308Y0251082D03*
X0356308Y0256082D03*
X0356308Y0261082D03*
X0356308Y0271082D03*
X0356308Y0276082D03*
X0356308Y0281082D03*
X0356308Y0286082D03*
X0356308Y0306082D03*
X0356308Y0311082D03*
X0356308Y0316082D03*
X0356308Y0321082D03*
X0356308Y0331082D03*
X0356308Y0336082D03*
X0356308Y0341082D03*
X0356308Y0346082D03*
X0377292Y0346082D03*
X0377292Y0341082D03*
X0377292Y0336082D03*
X0377292Y0331082D03*
X0377292Y0321082D03*
X0377292Y0316082D03*
X0377292Y0311082D03*
X0377292Y0306082D03*
X0377292Y0286082D03*
X0377292Y0281082D03*
X0377292Y0276082D03*
X0377292Y0271082D03*
X0377292Y0261082D03*
X0377292Y0256082D03*
X0377292Y0251082D03*
X0377292Y0246082D03*
X0377292Y0226082D03*
X0377292Y0221082D03*
X0377292Y0216082D03*
X0377292Y0211082D03*
X0377292Y0201082D03*
X0377292Y0196082D03*
X0377292Y0191082D03*
X0377292Y0186082D03*
X0377292Y0166082D03*
X0377292Y0161082D03*
X0377292Y0156082D03*
X0377292Y0151082D03*
X0377292Y0141082D03*
X0377292Y0136082D03*
X0377292Y0131082D03*
X0377292Y0126082D03*
X0421308Y0126082D03*
X0421308Y0131082D03*
X0421308Y0136082D03*
X0421308Y0141082D03*
X0421308Y0151082D03*
X0421308Y0156082D03*
X0421308Y0161082D03*
X0421308Y0166082D03*
X0442292Y0166082D03*
X0442292Y0161082D03*
X0442292Y0156082D03*
X0442292Y0151082D03*
X0442292Y0141082D03*
X0442292Y0136082D03*
X0442292Y0131082D03*
X0442292Y0126082D03*
X0442292Y0186082D03*
X0442292Y0191082D03*
X0442292Y0196082D03*
X0442292Y0201082D03*
X0442292Y0211082D03*
X0442292Y0216082D03*
X0442292Y0221082D03*
X0442292Y0226082D03*
X0421308Y0226082D03*
X0421308Y0221082D03*
X0421308Y0216082D03*
X0421308Y0211082D03*
X0421308Y0201082D03*
X0421308Y0196082D03*
X0421308Y0191082D03*
X0421308Y0186082D03*
X0421308Y0251082D03*
X0421308Y0256082D03*
X0421308Y0261082D03*
X0421308Y0266082D03*
X0421308Y0271082D03*
X0421308Y0276082D03*
X0421308Y0281082D03*
X0421308Y0286082D03*
X0442292Y0286082D03*
X0442292Y0281082D03*
X0442292Y0276082D03*
X0442292Y0271082D03*
X0442292Y0266082D03*
X0442292Y0261082D03*
X0442292Y0256082D03*
X0442292Y0251082D03*
X0442292Y0306082D03*
X0442292Y0311082D03*
X0442292Y0316082D03*
X0442292Y0321082D03*
X0442292Y0331082D03*
X0442292Y0336082D03*
X0442292Y0341082D03*
X0442292Y0346082D03*
X0421308Y0346082D03*
X0421308Y0341082D03*
X0421308Y0336082D03*
X0421308Y0331082D03*
X0421308Y0321082D03*
X0421308Y0316082D03*
X0421308Y0311082D03*
X0421308Y0306082D03*
X0312292Y0306082D03*
X0312292Y0311082D03*
X0312292Y0316082D03*
X0312292Y0321082D03*
X0312292Y0331082D03*
X0312292Y0336082D03*
X0312292Y0341082D03*
X0312292Y0346082D03*
X0291308Y0346082D03*
X0291308Y0341082D03*
X0291308Y0336082D03*
X0291308Y0331082D03*
X0291308Y0321082D03*
X0291308Y0316082D03*
X0291308Y0311082D03*
X0291308Y0306082D03*
X0291308Y0286082D03*
X0291308Y0281082D03*
X0291308Y0276082D03*
X0291308Y0271082D03*
X0291308Y0261082D03*
X0291308Y0256082D03*
X0291308Y0251082D03*
X0291308Y0246082D03*
X0312292Y0246082D03*
X0312292Y0251082D03*
X0312292Y0256082D03*
X0312292Y0261082D03*
X0312292Y0271082D03*
X0312292Y0276082D03*
X0312292Y0281082D03*
X0312292Y0286082D03*
X0247292Y0286082D03*
X0247292Y0281082D03*
X0247292Y0276082D03*
X0247292Y0271082D03*
X0247292Y0261082D03*
X0247292Y0256082D03*
X0247292Y0251082D03*
X0247292Y0246082D03*
X0226308Y0246082D03*
X0226308Y0251082D03*
X0226308Y0256082D03*
X0226308Y0261082D03*
X0226308Y0271082D03*
X0226308Y0276082D03*
X0226308Y0281082D03*
X0226308Y0286082D03*
X0226308Y0306082D03*
X0226308Y0311082D03*
X0226308Y0316082D03*
X0226308Y0321082D03*
X0226308Y0331082D03*
X0226308Y0336082D03*
X0226308Y0341082D03*
X0226308Y0346082D03*
X0247292Y0346082D03*
X0247292Y0341082D03*
X0247292Y0336082D03*
X0247292Y0331082D03*
X0247292Y0321082D03*
X0247292Y0316082D03*
X0247292Y0311082D03*
X0247292Y0306082D03*
X0247292Y0226082D03*
X0247292Y0221082D03*
X0247292Y0216082D03*
X0247292Y0211082D03*
X0247292Y0201082D03*
X0247292Y0196082D03*
X0247292Y0191082D03*
X0247292Y0186082D03*
X0226308Y0186082D03*
X0226308Y0191082D03*
X0226308Y0196082D03*
X0226308Y0201082D03*
X0226308Y0211082D03*
X0226308Y0216082D03*
X0226308Y0221082D03*
X0226308Y0226082D03*
X0291308Y0226082D03*
X0291308Y0221082D03*
X0291308Y0216082D03*
X0291308Y0211082D03*
X0291308Y0201082D03*
X0291308Y0196082D03*
X0291308Y0191082D03*
X0291308Y0186082D03*
X0312292Y0186082D03*
X0312292Y0191082D03*
X0312292Y0196082D03*
X0312292Y0201082D03*
X0312292Y0211082D03*
X0312292Y0216082D03*
X0312292Y0221082D03*
X0312292Y0226082D03*
D28*
X0454556Y0377598D03*
X0454556Y0023267D03*
X0021485Y0023267D03*
X0021485Y0377598D03*
M02*
