%
M48
M72
T01C0.01378
T02C0.03937
T03C0.05000
T04C0.11811
%
T01
X101149Y78303
X111149Y82303
X111149Y72303
X114249Y65303
X104149Y59303
X130249Y65303
X133149Y72303
X133249Y82303
X131149Y90303
X134149Y93303
X129149Y97303
X126149Y90303
X119149Y97303
X115149Y103303
X109249Y107303
X109149Y112303
X115249Y115650
X115249Y127650
X120149Y130303
X113249Y141303
X108149Y144303
X101902Y144303
X108249Y153303
X102572Y159803
X108149Y163303
X113249Y167303
X118249Y161303
X123926Y159803
X123926Y164803
X123926Y169803
X123926Y174803
X118249Y176303
X134249Y180303
X139863Y181303
X146149Y182303
X148249Y178957
X150149Y183303
X150149Y187303
X145149Y191303
X147249Y194303
X144149Y197303
X140149Y197303
X140149Y204303
X144249Y205078
X143249Y210292
X150249Y205303
X161149Y217303
X166149Y211303
X169149Y217303
X164149Y226303
X176149Y225303
X186149Y234303
X177249Y235303
X179926Y247303
X179926Y257303
X179926Y262303
X187149Y266303
X192149Y266303
X194149Y272303
X189149Y272303
X185149Y275303
X179926Y272303
X175149Y275303
X173149Y270303
X169149Y270303
X167149Y273303
X167149Y283303
X157149Y283303
X152149Y276303
X158249Y267303
X158572Y257303
X152741Y254614
X141718Y254614
X141149Y265303
X131149Y265303
X125572Y257303
X120149Y247303
X120149Y238303
X123149Y230303
X129249Y225303
X123149Y222303
X123149Y216303
X123149Y213303
X134572Y215803
X141149Y222303
X141149Y227303
X146149Y231303
X150149Y227303
X151149Y234303
X142149Y236303
X158572Y242303
X187249Y258303
X192149Y261303
X203149Y266303
X204249Y272303
X209249Y272303
X214249Y272303
X219249Y272303
X224249Y272303
X231149Y271303
X235249Y265303
X239249Y265303
X243249Y265303
X247249Y265303
X251249Y255303
X256249Y255303
X261249Y255303
X266249Y255303
X259349Y261303
X259349Y265303
X268349Y278303
X273349Y278303
X258349Y290303
X249349Y290303
X241149Y287303
X236249Y294650
X241349Y296303
X239349Y302303
X247349Y302303
X230249Y306650
X225349Y310303
X213349Y310303
X201349Y310303
X188149Y310303
X187149Y303303
X193149Y295303
X193149Y285303
X190149Y278303
X199249Y272303
X208149Y261303
X211149Y252303
X213249Y248303
X216847Y247902
X206249Y248303
X202249Y248303
X202149Y252303
X198149Y248303
X193149Y248303
X193149Y252303
X199149Y234303
X204149Y234303
X204149Y225303
X202149Y222303
X202149Y215303
X189149Y204303
X189149Y189303
X175635Y188114
X173149Y183303
X155926Y174803
X155926Y169803
X155926Y164803
X155926Y159803
X155926Y154803
X155926Y149803
X160149Y146303
X163883Y143303
X168249Y146235
X168249Y137303
X180499Y128553
X177149Y126303
X175149Y121303
X162249Y122303
X158149Y127303
X154149Y120303
X154149Y112303
X142249Y119303
X136249Y115650
X131149Y120303
X130149Y112303
X131149Y105303
X136149Y103303
X146149Y89303
X146149Y80303
X155149Y80303
X155149Y85303
X159149Y74303
X155149Y67303
X149149Y67303
X145149Y72303
X141149Y59303
X160149Y53303
X165149Y67303
X171249Y67303
X181249Y67303
X184249Y67303
X194249Y67303
X200249Y67303
X212149Y63303
X217149Y59303
X217249Y70650
X213149Y74303
X209149Y78303
X214149Y85303
X217149Y82303
X220149Y87303
X225149Y92303
X229149Y92303
X229149Y87303
X236749Y81795
X241149Y82303
X245149Y78303
X249149Y78303
X249149Y82303
X241149Y90303
X251249Y96303
X256249Y96303
X261249Y96303
X266249Y96303
X276249Y96303
X281249Y96303
X286249Y96303
X291249Y96303
X302249Y96303
X307249Y96303
X312249Y96303
X317249Y96303
X327249Y96303
X332249Y96303
X337249Y96303
X342249Y96303
X348149Y91303
X353249Y96303
X358249Y96303
X363249Y96303
X368249Y96303
X372149Y90303
X378249Y96303
X383249Y96303
X388249Y96303
X393249Y96303
X404249Y96303
X409249Y96303
X414249Y96303
X419249Y96303
X429249Y96303
X434249Y96303
X439249Y96303
X444249Y96303
X446149Y85303
X403149Y85303
X395149Y85303
X392149Y82303
X386149Y82303
X382149Y85303
X379963Y81907
X372249Y81907
X372249Y70957
X380249Y70957
X388249Y70957
X396249Y70957
X404249Y70957
X400149Y58303
X392149Y58303
X384149Y58303
X376149Y58303
X368149Y58303
X360149Y58303
X352149Y58303
X343149Y58303
X343149Y70303
X348249Y70957
X356249Y70957
X364249Y70957
X348249Y77650
X345149Y82303
X341149Y85303
X341149Y78303
X354149Y85303
X361249Y83303
X325249Y70957
X317249Y70957
X309249Y70957
X301249Y70957
X305149Y59303
X313149Y59303
X321149Y59303
X322149Y85303
X278249Y70957
X270249Y70957
X262249Y70957
X254249Y70957
X249149Y70303
X246149Y70303
X241249Y70650
X233249Y70650
X225249Y70650
X241149Y59303
X258149Y59303
X266149Y59303
X274149Y59303
X226149Y97303
X219149Y107303
X219149Y113303
X213149Y113303
X213149Y107303
X207572Y112803
X213149Y119303
X219149Y120303
X212863Y127803
X216149Y132303
X219249Y138803
X219749Y143803
X215249Y143134
X214663Y146712
X223249Y148303
X223635Y153813
X226595Y159303
X224249Y164303
X218149Y164303
X218149Y169303
X221249Y176303
X218647Y179303
X225149Y173303
X230595Y168303
X234249Y164586
X236049Y161326
X237849Y158066
X238649Y154488
X235149Y146303
X235149Y136303
X235149Y127303
X238149Y124303
X241149Y121303
X246249Y121303
X246324Y126378
X248560Y129458
X248560Y133036
X248560Y136614
X251249Y149303
X256249Y149303
X261249Y149303
X266249Y149303
X276249Y149303
X281249Y149303
X286249Y149303
X291249Y149303
X302249Y149303
X307249Y149303
X312249Y149303
X317249Y149303
X327249Y149303
X332249Y149303
X337249Y149303
X342249Y149303
X346149Y143303
X353249Y149303
X358249Y149303
X363249Y149303
X368249Y149303
X372149Y143303
X378249Y149303
X383249Y149303
X388249Y149303
X393249Y149303
X397149Y144303
X400149Y138303
X396149Y135303
X401149Y130303
X396149Y126303
X400149Y122303
X422149Y119303
X426149Y119303
X423149Y144303
X419249Y149303
X414249Y149303
X409249Y149303
X404249Y149303
X397149Y172303
X396149Y186303
X401149Y186303
X397149Y196303
X393249Y202303
X396149Y206303
X401149Y206303
X404249Y202303
X409249Y202303
X414249Y202303
X419249Y202303
X429249Y202303
X434249Y202303
X439249Y202303
X444249Y202303
X426149Y212303
X422149Y212303
X422149Y225303
X422149Y231303
X422149Y241303
X419249Y255303
X414249Y255303
X409249Y255303
X404249Y255303
X393249Y255303
X388249Y255303
X383249Y255303
X378249Y255303
X368249Y255303
X363249Y255303
X358249Y255303
X353249Y255303
X363249Y260992
X372349Y270303
X370349Y278303
X375349Y278303
X390349Y290303
X397349Y284303
X395349Y278303
X401349Y278303
X397349Y270303
X414249Y260992
X418349Y261303
X424349Y263303
X428349Y261303
X433349Y265303
X441349Y259303
X444349Y265303
X444249Y255303
X439249Y255303
X434249Y255303
X429249Y255303
X423349Y270303
X422349Y278303
X426349Y278303
X422349Y284303
X445149Y285303
X397149Y241303
X397149Y231303
X396149Y225303
X396149Y212303
X401149Y212303
X388249Y202303
X383249Y202303
X378249Y202303
X368249Y202303
X363249Y202303
X358249Y202303
X353249Y202303
X350149Y212303
X345149Y212303
X342249Y202303
X337249Y202303
X332249Y202303
X327249Y202303
X317249Y202303
X312249Y202303
X307249Y202303
X302249Y202303
X291249Y202303
X286249Y202303
X281249Y202303
X276249Y202303
X273149Y206303
X269149Y210303
X273149Y212303
X266249Y202303
X261249Y202303
X256249Y202303
X251249Y202303
X248149Y206303
X245149Y210303
X248149Y212303
X238249Y220303
X238249Y224214
X238160Y228303
X237149Y235303
X233149Y235303
X225149Y235303
X220149Y234303
X220149Y228303
X214158Y228303
X219149Y223303
X222417Y219703
X218647Y214064
X218647Y208303
X223149Y204303
X224149Y200303
X219249Y200303
X218647Y193303
X221357Y190614
X225149Y185303
X230595Y200303
X237149Y199303
X237149Y203303
X240149Y203303
X240149Y196303
X248560Y185453
X248560Y181875
X269249Y181881
X269249Y178303
X294249Y178303
X297827Y178303
X299149Y185303
X294149Y185303
X294149Y212303
X299149Y212303
X299149Y225303
X294149Y225303
X294149Y238303
X299149Y238303
X320149Y238303
X324149Y238303
X320149Y225303
X320149Y212303
X324149Y212303
X345149Y225303
X345149Y237303
X342249Y255303
X337249Y255303
X332249Y255303
X327249Y255303
X317249Y255303
X312249Y255303
X307249Y255303
X301249Y255303
X291249Y255303
X286249Y255303
X281249Y255303
X276249Y255303
X280349Y261303
X286349Y265303
X295349Y270303
X293349Y278303
X298349Y278303
X318349Y278303
X323349Y278303
X321349Y270303
X312249Y260992
X346349Y270303
X344349Y278303
X350349Y278303
X371149Y237303
X371149Y225303
X371149Y212303
X375149Y212303
X422149Y191303
X426149Y191303
X426149Y179303
X422149Y179303
X423149Y172303
X429249Y149303
X434249Y149303
X439249Y149303
X444249Y149303
X372149Y132303
X347149Y133303
X345149Y126303
X324149Y130303
X320149Y130303
X210149Y98303
X203149Y99303
X198149Y106303
X188149Y106303
X189149Y99303
X180249Y98303
X172249Y103303
X177149Y106303
X188149Y116303
X201149Y128303
X201149Y131303
X202249Y135614
X201863Y141303
X201249Y145303
X193149Y145303
X190149Y145303
X185249Y144303
X192249Y141303
X193149Y133303
X193560Y154803
X198560Y163811
X204249Y168303
X207572Y153803
X175911Y156966
X157149Y141303
X145149Y141303
X145149Y146303
X129149Y146303
X123926Y149803
X123926Y154803
X117249Y153303
X128149Y141303
X142149Y127303
X104249Y103303
X97249Y103303
X91149Y104303
X97149Y107303
X97249Y115303
X91249Y115303
X99593Y123303
X84827Y138672
X81249Y138303
X84249Y144303
X78249Y155303
X70572Y159803
X70572Y164803
X64149Y169303
X65149Y175303
X70572Y179803
X67149Y188303
X74149Y188303
X81149Y187303
X85149Y181303
X97281Y186303
X102149Y180303
X97249Y174492
X102572Y169803
X85149Y168303
X107249Y190303
X117149Y196303
X123249Y197303
X123149Y202303
X134572Y205803
X135149Y192303
X142149Y188303
X123249Y189303
X123249Y193303
X109149Y203303
X105249Y205303
X104938Y201303
X105149Y212303
X109149Y216303
X115149Y222303
X110149Y228303
X101149Y228303
X97149Y233303
X96149Y240303
X86149Y241303
X81149Y235303
X86149Y229303
X84149Y222303
X86149Y215303
X91926Y214303
X91926Y219303
X103149Y222303
X83149Y208303
X81149Y210303
X76149Y214303
X65149Y214303
X65149Y219303
X65149Y224303
X65149Y229303
X76149Y229303
X76149Y224303
X65149Y199303
X74149Y195303
X84149Y195303
X148149Y220303
X96149Y250303
X89149Y253303
X120149Y268303
X120149Y274303
X116149Y280303
X122149Y286303
X121149Y292303
X129149Y300303
X138149Y292303
X144149Y296303
X140501Y306303
X150149Y313303
X161149Y306303
X172149Y298303
X172149Y314303
X131149Y285303
X131149Y273303
X141149Y273303
X129149Y310303
X227149Y229303
X227149Y225303
X269149Y225303
X273149Y225303
X110249Y96303
X100249Y90303
X97249Y96303
X91149Y97303
X91149Y90303
X84149Y97303
X78249Y97303
X78149Y103303
X74149Y112303
X74149Y119303
X69149Y120303
X75249Y124303
X69149Y128303
X69149Y134303
X73149Y134303
X70149Y139303
X61149Y99303
X171149Y83303
X181149Y86303
X184149Y83303
X194149Y82303
X200149Y82303
X205149Y53303
X189149Y53303
X176149Y53303
T02
X111312Y287673
X92414Y299878
X111312Y311689
T03
X107249Y87303
X107249Y77303
X107249Y67303
X137249Y67303
X137249Y77303
X137249Y87303
T04
X75934Y67988
X75934Y323894
X430265Y323894
X430265Y67988
M30
