G75*
%MOIN*%
%OFA0B0*%
%FSLAX25Y25*%
%IPPOS*%
%LPD*%
%AMOC8*
5,1,8,0,0,1.08239X$1,22.5*
%
%ADD10C,0.00000*%
%ADD11R,0.04331X0.03937*%
%ADD12R,0.03937X0.04331*%
%ADD13R,0.06004X0.02559*%
%ADD14R,0.05800X0.01400*%
%ADD15R,0.02200X0.07800*%
%ADD16C,0.07874*%
%ADD17C,0.07500*%
%ADD18C,0.23000*%
D10*
X0056249Y0048303D02*
X0056249Y0343579D01*
X0449950Y0343579D01*
X0449950Y0048303D01*
X0056249Y0048303D01*
D11*
X0062902Y0139303D03*
X0069595Y0139303D03*
X0217249Y0070650D03*
X0225249Y0070650D03*
X0225249Y0063957D03*
X0217249Y0063957D03*
X0233249Y0063957D03*
X0233249Y0070650D03*
X0241249Y0070650D03*
X0241249Y0063957D03*
X0254249Y0070957D03*
X0254249Y0077650D03*
X0262249Y0077650D03*
X0270249Y0077650D03*
X0270249Y0070957D03*
X0262249Y0070957D03*
X0278249Y0070957D03*
X0278249Y0077650D03*
X0301249Y0077650D03*
X0301249Y0070957D03*
X0309249Y0070957D03*
X0309249Y0077650D03*
X0317249Y0077650D03*
X0317249Y0070957D03*
X0325249Y0070957D03*
X0325249Y0077650D03*
X0348249Y0077650D03*
X0356249Y0077650D03*
X0356249Y0070957D03*
X0348249Y0070957D03*
X0364249Y0070957D03*
X0364249Y0077650D03*
X0372249Y0077650D03*
X0372249Y0070957D03*
X0380249Y0070957D03*
X0388249Y0070957D03*
X0388249Y0077650D03*
X0380249Y0077650D03*
X0396249Y0077650D03*
X0396249Y0070957D03*
X0404249Y0070957D03*
X0404249Y0077650D03*
X0232595Y0097303D03*
X0225902Y0097303D03*
X0223902Y0168303D03*
X0230595Y0168303D03*
X0230595Y0200303D03*
X0223902Y0200303D03*
X0163595Y0278303D03*
X0156902Y0278303D03*
X0131595Y0278303D03*
X0124902Y0278303D03*
X0193249Y0299957D03*
X0193249Y0306650D03*
X0206249Y0306650D03*
X0206249Y0299957D03*
X0212249Y0294650D03*
X0212249Y0287957D03*
X0200249Y0287957D03*
X0200249Y0294650D03*
X0218249Y0299957D03*
X0224249Y0294650D03*
X0230249Y0299957D03*
X0230249Y0306650D03*
X0218249Y0306650D03*
X0236249Y0294650D03*
X0236249Y0287957D03*
X0224249Y0287957D03*
D12*
X0187249Y0247650D03*
X0187249Y0240957D03*
X0159249Y0185650D03*
X0159249Y0178957D03*
D13*
X0166572Y0179803D03*
X0166572Y0184803D03*
X0166572Y0174803D03*
X0166572Y0169803D03*
X0166572Y0164803D03*
X0166572Y0159803D03*
X0166572Y0154803D03*
X0166572Y0149803D03*
X0187926Y0149803D03*
X0187926Y0154803D03*
X0187926Y0159803D03*
X0187926Y0164803D03*
X0187926Y0169803D03*
X0187926Y0174803D03*
X0187926Y0179803D03*
X0187926Y0184803D03*
X0207572Y0137803D03*
X0207572Y0132803D03*
X0207572Y0127803D03*
X0207572Y0122803D03*
X0207572Y0117803D03*
X0207572Y0112803D03*
X0207572Y0107803D03*
X0207572Y0102803D03*
X0228926Y0102803D03*
X0228926Y0107803D03*
X0228926Y0112803D03*
X0228926Y0117803D03*
X0228926Y0122803D03*
X0228926Y0127803D03*
X0228926Y0132803D03*
X0228926Y0137803D03*
X0179926Y0242303D03*
X0179926Y0247303D03*
X0179926Y0252303D03*
X0179926Y0257303D03*
X0179926Y0262303D03*
X0179926Y0267303D03*
X0179926Y0272303D03*
X0158572Y0272303D03*
X0158572Y0267303D03*
X0158572Y0262303D03*
X0158572Y0257303D03*
X0158572Y0252303D03*
X0158572Y0247303D03*
X0158572Y0242303D03*
X0146926Y0242303D03*
X0146926Y0247303D03*
X0146926Y0252303D03*
X0146926Y0257303D03*
X0146926Y0262303D03*
X0146926Y0267303D03*
X0146926Y0272303D03*
X0125572Y0272303D03*
X0125572Y0267303D03*
X0125572Y0262303D03*
X0125572Y0257303D03*
X0125572Y0252303D03*
X0125572Y0247303D03*
X0125572Y0242303D03*
X0084926Y0133303D03*
X0084926Y0128303D03*
X0084926Y0123303D03*
X0084926Y0118303D03*
X0084926Y0113303D03*
X0084926Y0108303D03*
X0084926Y0103303D03*
X0063572Y0103303D03*
X0063572Y0108303D03*
X0063572Y0113303D03*
X0063572Y0118303D03*
X0063572Y0123303D03*
X0063572Y0128303D03*
X0063572Y0133303D03*
D14*
X0207749Y0172303D03*
X0207749Y0174903D03*
X0207749Y0177503D03*
X0207749Y0180003D03*
X0207749Y0182603D03*
X0207749Y0185103D03*
X0207749Y0187703D03*
X0207749Y0190303D03*
X0207749Y0204303D03*
X0207749Y0206903D03*
X0207749Y0209503D03*
X0207749Y0212003D03*
X0207749Y0214603D03*
X0207749Y0217103D03*
X0207749Y0219703D03*
X0207749Y0222303D03*
X0230749Y0222303D03*
X0230749Y0219703D03*
X0230749Y0217103D03*
X0230749Y0214603D03*
X0230749Y0212003D03*
X0230749Y0209503D03*
X0230749Y0206903D03*
X0230749Y0204303D03*
X0230749Y0190303D03*
X0230749Y0187703D03*
X0230749Y0185103D03*
X0230749Y0182603D03*
X0230749Y0180003D03*
X0230749Y0177503D03*
X0230749Y0174903D03*
X0230749Y0172303D03*
D15*
X0228749Y0241903D03*
X0233749Y0241903D03*
X0238749Y0241903D03*
X0223749Y0241903D03*
X0218749Y0241903D03*
X0213749Y0241903D03*
X0208749Y0241903D03*
X0203749Y0241903D03*
X0198749Y0241903D03*
X0193749Y0241903D03*
X0193749Y0278703D03*
X0198749Y0278703D03*
X0203749Y0278703D03*
X0208749Y0278703D03*
X0213749Y0278703D03*
X0218749Y0278703D03*
X0223749Y0278703D03*
X0228749Y0278703D03*
X0233749Y0278703D03*
X0238749Y0278703D03*
D16*
X0115249Y0287673D02*
X0107375Y0287673D01*
X0092414Y0295941D02*
X0092414Y0303815D01*
X0107375Y0311689D02*
X0115249Y0311689D01*
D17*
X0107249Y0087303D03*
X0107249Y0077303D03*
X0107249Y0067303D03*
X0137249Y0067303D03*
X0137249Y0077303D03*
X0137249Y0087303D03*
D18*
X0075934Y0067988D03*
X0075934Y0323894D03*
X0430265Y0323894D03*
X0430265Y0067988D03*
M02*
